<?xml version="1.0" standalone="no"?>
<!DOCTYPE svg PUBLIC "-//W3C//DTD SVG 20010904//EN"
 "http://www.w3.org/TR/2001/REC-SVG-20010904/DTD/svg10.dtd">
<svg version="1.0" xmlns="http://www.w3.org/2000/svg"
 width="200" height="200" viewBox="0 0 512.000000 512.000000"
 preserveAspectRatio="xMidYMid meet">
<metadata>
Created by potrace 1.11, written by Peter Selinger 2001-2013
</metadata>
<g transform="translate(0.000000,512.000000) scale(0.100000,-0.100000)"
fill="blue" stroke="none">
<path d="M2382 4950 c-157 -41 -318 -155 -405 -288 -72 -108 -102 -192 -122
-345 l-6 -48 -37 33 c-194 176 -514 219 -758 102 -150 -71 -261 -180 -333
-329 -122 -249 -82 -569 97 -767 l33 -37 -48 -6 c-208 -28 -350 -97 -471 -231
-243 -270 -243 -678 0 -948 121 -134 263 -203 471 -231 l48 -6 -33 -37 c-176
-194 -219 -514 -102 -758 71 -150 180 -261 329 -333 249 -122 569 -82 767 97
l37 33 6 -48 c28 -208 97 -350 231 -471 270 -243 678 -243 948 0 134 121 203
263 231 471 l6 48 37 -33 c198 -179 518 -219 767 -97 149 72 258 183 329 333
117 244 74 564 -102 758 l-33 37 48 6 c208 28 350 97 471 231 243 270 243 678
0 948 -121 134 -263 203 -471 231 l-48 6 33 37 c176 194 219 514 102 758 -71
150 -180 261 -329 333 -249 122 -569 82 -767 -97 l-37 -33 -6 48 c-20 153 -50
237 -122 345 -89 135 -249 247 -409 288 -102 26 -251 26 -352 0z m333 -339
c109 -50 177 -130 210 -245 32 -111 5 -242 -69 -339 l-26 -34 0 -389 0 -389
279 279 278 278 6 53 c8 75 55 162 121 223 150 136 378 131 521 -13 143 -143
149 -372 13 -521 -61 -66 -148 -113 -223 -121 l-53 -6 -278 -278 -279 -279
389 0 389 0 34 26 c194 148 469 89 577 -124 133 -263 -71 -571 -364 -550 -71
5 -154 37 -213 82 l-34 26 -389 0 -389 0 279 -279 278 -278 53 -6 c117 -12
250 -117 296 -235 47 -119 24 -270 -56 -375 -96 -125 -286 -177 -437 -118
-118 46 -223 178 -235 296 l-6 53 -278 278 -279 279 0 -389 0 -389 26 -34
c148 -194 89 -469 -124 -577 -194 -98 -422 -18 -519 183 -24 49 -27 68 -28
151 0 83 3 102 27 152 15 32 38 73 52 91 l26 34 0 389 0 389 -279 -279 c-275
-274 -279 -279 -283 -325 -20 -204 -239 -363 -444 -321 -159 33 -271 145 -304
304 -42 202 115 423 315 443 l53 6 278 278 279 279 -389 0 -389 0 -34 -26
c-132 -100 -308 -109 -445 -22 -64 40 -105 89 -142 168 -26 57 -30 76 -30 151
0 80 3 92 37 162 43 86 99 142 186 184 49 24 68 27 151 28 83 0 102 -3 152
-27 32 -15 73 -38 91 -52 l34 -26 389 0 389 0 -279 279 -278 278 -53 6 c-200
20 -357 241 -315 443 33 159 145 271 304 304 202 42 423 -115 443 -315 l6 -53
278 -278 279 -279 0 389 0 389 -26 34 c-14 18 -37 59 -52 91 -24 50 -27 69
-27 152 1 84 4 102 30 155 51 107 157 192 269 215 67 15 164 2 231 -29z"/>
</g>
</svg>
